<svg xmlns="http://www.w3.org/2000/svg" viewBox="0 0 1200 750">
  <style>text { font-family: system-ui, -apple-system, Arial, sans-serif; }</style>

  <!-- Background -->
  <rect width="1200" height="750" fill="#F8FAFC"/>

  <!-- ── TOP NAVBAR ── -->
  <rect width="1200" height="52" fill="#0E1117"/>
  <rect x="16" y="12" width="28" height="28" rx="6" fill="#14B8A6"/>
  <text x="30" y="30" text-anchor="middle" fill="white" font-size="10" font-weight="800">ITS</text>
  <text x="52" y="27" fill="white" font-size="13" font-weight="700">ITS V.Pro</text>
  <text x="52" y="42" fill="#64748B" font-size="9">Inventory Tracking System</text>
  <text x="210" y="31" fill="#9AA4B2" font-size="12">Dashboard</text>
  <text x="306" y="31" fill="#9AA4B2" font-size="12">GRNs</text>
  <text x="362" y="31" fill="#9AA4B2" font-size="12">LPOs</text>
  <!-- Stock active -->
  <rect x="406" y="0" width="60" height="52" fill="#14B8A6" fill-opacity="0.1"/>
  <rect x="409" y="49" width="54" height="3" rx="1.5" fill="#14B8A6"/>
  <text x="436" y="31" text-anchor="middle" fill="#14B8A6" font-size="12" font-weight="600">Stock</text>
  <text x="474" y="31" fill="#9AA4B2" font-size="12">Reports</text>
  <circle cx="1166" cy="26" r="14" fill="#1A2537"/>
  <text x="1166" y="31" text-anchor="middle" fill="#14B8A6" font-size="11" font-weight="700">JK</text>

  <!-- ── SIDEBAR ── -->
  <rect x="0" y="52" width="200" height="698" fill="#0D1320"/>
  <rect x="0" y="52" width="200" height="58" fill="#121826"/>
  <circle cx="28" cy="81" r="13" fill="#1E2D3D"/>
  <text x="28" y="85.5" text-anchor="middle" fill="#14B8A6" font-size="11" font-weight="700">JK</text>
  <text x="50" y="78" fill="#E6EAF0" font-size="12" font-weight="600">James K.</text>
  <text x="50" y="94" fill="#64748B" font-size="10">Stock Manager</text>
  <text x="16" y="132" fill="#374151" font-size="9" font-weight="600" letter-spacing="1.5">MAIN MENU</text>
  <text x="32" y="160" fill="#64748B" font-size="12">Dashboard</text>
  <text x="32" y="192" fill="#64748B" font-size="12">GRN Management</text>
  <text x="32" y="222" fill="#64748B" font-size="12">LPO Management</text>
  <!-- Stock Movement active -->
  <rect x="8" y="232" width="184" height="32" rx="7" fill="#14B8A6" fill-opacity="0.15"/>
  <rect x="8" y="232" width="3" height="32" rx="1" fill="#14B8A6"/>
  <text x="32" y="252" fill="#14B8A6" font-size="12" font-weight="600">Stock Movement</text>
  <text x="32" y="284" fill="#64748B" font-size="12">Item Master</text>
  <line x1="16" y1="302" x2="184" y2="302" stroke="#1E2D3D"/>
  <text x="16" y="318" fill="#374151" font-size="9" font-weight="600" letter-spacing="1.5">REPORTS</text>
  <text x="32" y="338" fill="#64748B" font-size="12">Stock Reports</text>
  <text x="32" y="366" fill="#64748B" font-size="12">Variance Reports</text>
  <text x="32" y="394" fill="#64748B" font-size="12">Procurement Summary</text>
  <rect x="8" y="712" width="184" height="28" rx="7" fill="#1E2D3D"/>
  <text x="100" y="730" text-anchor="middle" fill="#9AA4B2" font-size="10">Lakeside Lounge &amp; Grill ▾</text>

  <!-- ── MAIN CONTENT ── -->
  <!-- Page header -->
  <rect x="200" y="52" width="1000" height="60" fill="white"/>
  <line x1="200" y1="112" x2="1200" y2="112" stroke="#E2E8F0"/>
  <text x="224" y="80" fill="#0F172A" font-size="20" font-weight="700">Stock Movement</text>
  <!-- Period selector -->
  <rect x="962" y="64" width="124" height="32" rx="8" fill="white" stroke="#E2E8F0"/>
  <text x="1024" y="84" text-anchor="middle" fill="#0F172A" font-size="12" font-weight="600">February 2026</text>
  <text x="1076" y="84" fill="#94A3B8" font-size="12">▾</text>
  <text x="936" y="84" fill="#94A3B8" font-size="16">‹</text>
  <rect x="1096" y="64" width="80" height="32" rx="8" fill="white" stroke="#E2E8F0"/>
  <text x="1136" y="84" text-anchor="middle" fill="#94A3B8" font-size="12">Mar 2026 ›</text>
  <text x="224" y="100" fill="#94A3B8" font-size="11">Tracking 48 items  ·  Movement period: 1 Feb – 28 Feb 2026</text>

  <!-- ── SUMMARY CARDS ── -->
  <rect x="224" y="124" width="218" height="74" rx="10" fill="white" stroke="#E2E8F0"/>
  <text x="244" y="147" fill="#64748B" font-size="11">Items Tracked</text>
  <text x="244" y="178" fill="#0F172A" font-size="26" font-weight="800">48</text>
  <text x="244" y="192" fill="#14B8A6" font-size="10">All categories</text>

  <rect x="454" y="124" width="218" height="74" rx="10" fill="white" stroke="#E2E8F0"/>
  <text x="474" y="147" fill="#64748B" font-size="11">Total Received (UGX)</text>
  <text x="474" y="176" fill="#0F172A" font-size="20" font-weight="800">18,440,000</text>
  <text x="474" y="192" fill="#22C55E" font-size="10">↑ 12% vs Jan</text>

  <rect x="684" y="124" width="218" height="74" rx="10" fill="white" stroke="#E2E8F0"/>
  <text x="704" y="147" fill="#64748B" font-size="11">Total Issued (UGX)</text>
  <text x="704" y="176" fill="#0F172A" font-size="20" font-weight="800">15,210,000</text>
  <text x="704" y="192" fill="#64748B" font-size="10">Within expected range</text>

  <rect x="914" y="124" width="262" height="74" rx="10" fill="white" stroke="#FEE2E2"/>
  <text x="934" y="147" fill="#64748B" font-size="11">Items with Variance</text>
  <text x="934" y="178" fill="#EF4444" font-size="26" font-weight="800">8</text>
  <text x="934" y="192" fill="#EF4444" font-size="10">3 above 5% threshold</text>

  <!-- ── STOCK MOVEMENT TABLE ── -->
  <text x="224" y="226" fill="#0F172A" font-size="14" font-weight="700">Item Movement Summary</text>
  <rect x="1042" y="216" width="130" height="24" rx="6" fill="#F0FDFA" stroke="#99F6E4"/>
  <text x="1107" y="232" text-anchor="middle" fill="#0D9488" font-size="11" font-weight="600">Export Report ↓</text>
  <!-- Table header -->
  <rect x="220" y="234" width="960" height="26" fill="#F1F5F9"/>
  <line x1="220" y1="260" x2="1180" y2="260" stroke="#E2E8F0"/>
  <text x="236" y="251" fill="#64748B" font-size="10" font-weight="700">ITEM</text>
  <text x="460" y="251" fill="#64748B" font-size="10" font-weight="700">OPENING</text>
  <text x="548" y="251" fill="#64748B" font-size="10" font-weight="700">RECEIVED</text>
  <text x="638" y="251" fill="#64748B" font-size="10" font-weight="700">ISSUED</text>
  <text x="722" y="251" fill="#64748B" font-size="10" font-weight="700">LEAKAGE</text>
  <text x="808" y="251" fill="#64748B" font-size="10" font-weight="700">CLOSING</text>
  <text x="894" y="251" fill="#64748B" font-size="10" font-weight="700">VARIANCE %</text>
  <!-- Row 1 – OK -->
  <rect x="220" y="260" width="960" height="37" fill="white"/>
  <line x1="220" y1="297" x2="1180" y2="297" stroke="#E2E8F0"/>
  <text x="236" y="281" fill="#0F172A" font-size="11" font-weight="600">Tusker Lager 500ml</text>
  <text x="236" y="294" fill="#94A3B8" font-size="9">Beverages · crates</text>
  <text x="460" y="281" fill="#0F172A" font-size="11">240</text>
  <text x="548" y="281" fill="#0F172A" font-size="11">144</text>
  <text x="638" y="281" fill="#0F172A" font-size="11">168</text>
  <text x="722" y="281" fill="#64748B" font-size="11">3</text>
  <text x="808" y="281" fill="#0F172A" font-size="11">213</text>
  <rect x="890" y="270" width="52" height="18" rx="9" fill="#F0FDF4"/>
  <text x="916" y="283" text-anchor="middle" fill="#16A34A" font-size="10" font-weight="600">1.4%</text>
  <!-- Row 2 – OK -->
  <rect x="220" y="297" width="960" height="37" fill="#F8FAFC"/>
  <line x1="220" y1="334" x2="1180" y2="334" stroke="#E2E8F0"/>
  <text x="236" y="318" fill="#0F172A" font-size="11" font-weight="600">Cooking Oil 5L</text>
  <text x="236" y="331" fill="#94A3B8" font-size="9">Food &amp; Produce · containers</text>
  <text x="460" y="318" fill="#0F172A" font-size="11">18</text>
  <text x="548" y="318" fill="#0F172A" font-size="11">30</text>
  <text x="638" y="318" fill="#0F172A" font-size="11">32</text>
  <text x="722" y="318" fill="#64748B" font-size="11">0</text>
  <text x="808" y="318" fill="#0F172A" font-size="11">16</text>
  <rect x="890" y="307" width="52" height="18" rx="9" fill="#F0FDF4"/>
  <text x="916" y="320" text-anchor="middle" fill="#16A34A" font-size="10" font-weight="600">0%</text>
  <!-- Row 3 – OK -->
  <rect x="220" y="334" width="960" height="37" fill="white"/>
  <line x1="220" y1="371" x2="1180" y2="371" stroke="#E2E8F0"/>
  <text x="236" y="355" fill="#0F172A" font-size="11" font-weight="600">UDL Vodka 750ml</text>
  <text x="236" y="368" fill="#94A3B8" font-size="9">Spirits · bottles</text>
  <text x="460" y="355" fill="#0F172A" font-size="11">48</text>
  <text x="548" y="355" fill="#0F172A" font-size="11">24</text>
  <text x="638" y="355" fill="#0F172A" font-size="11">30</text>
  <text x="722" y="355" fill="#64748B" font-size="11">1</text>
  <text x="808" y="355" fill="#0F172A" font-size="11">41</text>
  <rect x="890" y="344" width="52" height="18" rx="9" fill="#F0FDF4"/>
  <text x="916" y="357" text-anchor="middle" fill="#16A34A" font-size="10" font-weight="600">2.1%</text>
  <!-- Row 4 – Amber warning -->
  <rect x="220" y="371" width="960" height="37" fill="#FFFBF0"/>
  <line x1="220" y1="408" x2="1180" y2="408" stroke="#E2E8F0"/>
  <text x="236" y="392" fill="#0F172A" font-size="11" font-weight="600">Chicken Legs (kg)</text>
  <text x="236" y="405" fill="#94A3B8" font-size="9">Food &amp; Produce · kg</text>
  <text x="460" y="392" fill="#0F172A" font-size="11">0</text>
  <text x="548" y="392" fill="#0F172A" font-size="11">25</text>
  <text x="638" y="392" fill="#0F172A" font-size="11">22</text>
  <text x="722" y="392" fill="#B45309" font-size="11" font-weight="600">1.2</text>
  <text x="808" y="392" fill="#0F172A" font-size="11">1.8</text>
  <rect x="886" y="381" width="60" height="18" rx="9" fill="#FFFBEB" stroke="#FDE68A"/>
  <text x="916" y="394" text-anchor="middle" fill="#B45309" font-size="10" font-weight="600">4.8%</text>
  <!-- Row 5 – OK -->
  <rect x="220" y="408" width="960" height="37" fill="white"/>
  <line x1="220" y1="445" x2="1180" y2="445" stroke="#E2E8F0"/>
  <text x="236" y="429" fill="#0F172A" font-size="11" font-weight="600">Mineral Water 500ml</text>
  <text x="236" y="442" fill="#94A3B8" font-size="9">Beverages · crates</text>
  <text x="460" y="429" fill="#0F172A" font-size="11">96</text>
  <text x="548" y="429" fill="#0F172A" font-size="11">144</text>
  <text x="638" y="429" fill="#0F172A" font-size="11">130</text>
  <text x="722" y="429" fill="#64748B" font-size="11">2</text>
  <text x="808" y="429" fill="#0F172A" font-size="11">108</text>
  <rect x="890" y="418" width="52" height="18" rx="9" fill="#F0FDF4"/>
  <text x="916" y="431" text-anchor="middle" fill="#16A34A" font-size="10" font-weight="600">1.5%</text>
  <!-- Row 6 – RED high variance -->
  <rect x="220" y="445" width="960" height="37" fill="#FFF5F5"/>
  <line x1="220" y1="482" x2="1180" y2="482" stroke="#FECACA"/>
  <text x="236" y="466" fill="#0F172A" font-size="11" font-weight="600">Fresh Tomatoes (kg)</text>
  <text x="236" y="479" fill="#94A3B8" font-size="9">Food &amp; Produce · kg</text>
  <text x="460" y="466" fill="#0F172A" font-size="11">0</text>
  <text x="548" y="466" fill="#0F172A" font-size="11">15</text>
  <text x="638" y="466" fill="#0F172A" font-size="11">13.5</text>
  <text x="722" y="466" fill="#B91C1C" font-size="11" font-weight="600">1.0</text>
  <text x="808" y="466" fill="#0F172A" font-size="11">0.5</text>
  <rect x="882" y="455" width="68" height="18" rx="9" fill="#FEE2E2" stroke="#FECACA"/>
  <text x="916" y="468" text-anchor="middle" fill="#B91C1C" font-size="10" font-weight="700">6.7% !</text>
  <!-- Row 7 – RED high variance -->
  <rect x="220" y="482" width="960" height="37" fill="#FFF5F5"/>
  <line x1="220" y1="519" x2="1180" y2="519" stroke="#FECACA"/>
  <text x="236" y="503" fill="#0F172A" font-size="11" font-weight="600">EABL Stout 330ml</text>
  <text x="236" y="516" fill="#94A3B8" font-size="9">Beverages · crates</text>
  <text x="460" y="503" fill="#0F172A" font-size="11">28</text>
  <text x="548" y="503" fill="#0F172A" font-size="11">48</text>
  <text x="638" y="503" fill="#0F172A" font-size="11">44</text>
  <text x="722" y="503" fill="#B91C1C" font-size="11" font-weight="600">4</text>
  <text x="808" y="503" fill="#0F172A" font-size="11">28</text>
  <rect x="882" y="492" width="68" height="18" rx="9" fill="#FEE2E2" stroke="#FECACA"/>
  <text x="916" y="505" text-anchor="middle" fill="#B91C1C" font-size="10" font-weight="700">8.3% !</text>
  <!-- Table footer -->
  <rect x="220" y="519" width="960" height="34" fill="#F8FAFC"/>
  <line x1="220" y1="519" x2="1180" y2="519" stroke="#E2E8F0"/>
  <text x="236" y="540" fill="#94A3B8" font-size="10">Showing 7 of 48 items  ·  3 items exceed variance threshold</text>
  <rect x="1074" y="529" width="22" height="16" rx="5" fill="#E2E8F0"/>
  <text x="1085" y="541" text-anchor="middle" fill="#64748B" font-size="10" font-weight="600">‹</text>
  <rect x="1102" y="529" width="22" height="16" rx="5" fill="#14B8A6"/>
  <text x="1113" y="541" text-anchor="middle" fill="white" font-size="10" font-weight="600">1</text>
  <rect x="1130" y="529" width="22" height="16" rx="5" fill="#E2E8F0"/>
  <text x="1141" y="541" text-anchor="middle" fill="#64748B" font-size="10" font-weight="600">2</text>
  <rect x="1158" y="529" width="22" height="16" rx="5" fill="#E2E8F0"/>
  <text x="1169" y="541" text-anchor="middle" fill="#64748B" font-size="10" font-weight="600">›</text>
</svg>
