<svg xmlns="http://www.w3.org/2000/svg" viewBox="0 0 1200 750">
  <style>text { font-family: system-ui, -apple-system, Arial, sans-serif; }</style>

  <!-- Background -->
  <rect width="1200" height="750" fill="#F8FAFC"/>

  <!-- ── TOP NAVBAR ── -->
  <rect width="1200" height="52" fill="#0E1117"/>
  <rect x="16" y="12" width="28" height="28" rx="6" fill="#14B8A6"/>
  <text x="30" y="30" text-anchor="middle" fill="white" font-size="10" font-weight="800">ITS</text>
  <text x="52" y="27" fill="white" font-size="13" font-weight="700">ITS V.Pro</text>
  <text x="52" y="42" fill="#64748B" font-size="9">Inventory Tracking System</text>
  <!-- Dashboard active -->
  <rect x="196" y="0" width="86" height="52" fill="#14B8A6" fill-opacity="0.1"/>
  <rect x="200" y="49" width="78" height="3" rx="1.5" fill="#14B8A6"/>
  <text x="239" y="31" text-anchor="middle" fill="#14B8A6" font-size="12" font-weight="600">Dashboard</text>
  <!-- Other nav links -->
  <text x="310" y="31" fill="#9AA4B2" font-size="12">GRNs</text>
  <text x="366" y="31" fill="#9AA4B2" font-size="12">LPOs</text>
  <text x="420" y="31" fill="#9AA4B2" font-size="12">Stock</text>
  <text x="474" y="31" fill="#9AA4B2" font-size="12">Reports</text>
  <!-- User avatar -->
  <circle cx="1166" cy="26" r="14" fill="#1A2537"/>
  <text x="1166" y="31" text-anchor="middle" fill="#14B8A6" font-size="11" font-weight="700">JK</text>

  <!-- ── SIDEBAR ── -->
  <rect x="0" y="52" width="200" height="698" fill="#0D1320"/>
  <rect x="0" y="52" width="200" height="58" fill="#121826"/>
  <circle cx="28" cy="81" r="13" fill="#1E2D3D"/>
  <text x="28" y="85.5" text-anchor="middle" fill="#14B8A6" font-size="11" font-weight="700">JK</text>
  <text x="50" y="78" fill="#E6EAF0" font-size="12" font-weight="600">James K.</text>
  <text x="50" y="94" fill="#64748B" font-size="10">Stock Manager</text>
  <text x="16" y="132" fill="#374151" font-size="9" font-weight="600" letter-spacing="1.5">MAIN MENU</text>
  <!-- Dashboard active -->
  <rect x="8" y="140" width="184" height="32" rx="7" fill="#14B8A6" fill-opacity="0.15"/>
  <rect x="8" y="140" width="3" height="32" rx="1" fill="#14B8A6"/>
  <text x="32" y="160" fill="#14B8A6" font-size="12" font-weight="600">Dashboard</text>
  <!-- Other items -->
  <text x="32" y="192" fill="#64748B" font-size="12">GRN Management</text>
  <text x="32" y="222" fill="#64748B" font-size="12">LPO Management</text>
  <text x="32" y="252" fill="#64748B" font-size="12">Stock Movement</text>
  <text x="32" y="282" fill="#64748B" font-size="12">Item Master</text>
  <line x1="16" y1="300" x2="184" y2="300" stroke="#1E2D3D"/>
  <text x="16" y="316" fill="#374151" font-size="9" font-weight="600" letter-spacing="1.5">REPORTS</text>
  <text x="32" y="336" fill="#64748B" font-size="12">Stock Reports</text>
  <text x="32" y="364" fill="#64748B" font-size="12">Variance Reports</text>
  <text x="32" y="392" fill="#64748B" font-size="12">Procurement Summary</text>
  <rect x="8" y="712" width="184" height="28" rx="7" fill="#1E2D3D"/>
  <text x="100" y="730" text-anchor="middle" fill="#9AA4B2" font-size="10">Lakeside Lounge &amp; Grill ▾</text>

  <!-- ── MAIN CONTENT ── -->
  <rect x="200" y="52" width="1000" height="60" fill="white"/>
  <line x1="200" y1="112" x2="1200" y2="112" stroke="#E2E8F0"/>
  <text x="224" y="80" fill="#0F172A" font-size="20" font-weight="700">Dashboard</text>
  <text x="224" y="100" fill="#94A3B8" font-size="11">Wednesday, 5 March 2026  ·  Lakeside Lounge &amp; Grill</text>

  <!-- ── STAT CARDS ── -->
  <!-- Open LPOs -->
  <rect x="224" y="124" width="218" height="84" rx="10" fill="white" stroke="#E2E8F0"/>
  <text x="244" y="148" fill="#64748B" font-size="11">Open LPOs</text>
  <text x="244" y="184" fill="#0F172A" font-size="30" font-weight="800">7</text>
  <rect x="390" y="138" width="26" height="26" rx="6" fill="#F0FDFA"/>
  <text x="403" y="156" text-anchor="middle" fill="#14B8A6" font-size="14" font-weight="700">↑</text>
  <rect x="244" y="194" width="60" height="12" rx="6" fill="#F0FDF4"/>
  <text x="274" y="203" text-anchor="middle" fill="#16A34A" font-size="9" font-weight="600">3 pending</text>
  <!-- Pending GRNs -->
  <rect x="454" y="124" width="218" height="84" rx="10" fill="white" stroke="#E2E8F0"/>
  <text x="474" y="148" fill="#64748B" font-size="11">Pending GRNs</text>
  <text x="474" y="184" fill="#0F172A" font-size="30" font-weight="800">4</text>
  <rect x="474" y="194" width="72" height="12" rx="6" fill="#FFFBEB"/>
  <text x="510" y="203" text-anchor="middle" fill="#B45309" font-size="9" font-weight="600">1 variance</text>
  <!-- Items Below PAR -->
  <rect x="684" y="124" width="218" height="84" rx="10" fill="white" stroke="#E2E8F0"/>
  <text x="704" y="148" fill="#64748B" font-size="11">Items Below PAR</text>
  <text x="704" y="184" fill="#EF4444" font-size="30" font-weight="800">12</text>
  <rect x="704" y="194" width="80" height="12" rx="6" fill="#FEF2F2"/>
  <text x="744" y="203" text-anchor="middle" fill="#B91C1C" font-size="9" font-weight="600">Action reqd</text>
  <!-- Total Stock Value -->
  <rect x="914" y="124" width="262" height="84" rx="10" fill="white" stroke="#E2E8F0"/>
  <text x="934" y="148" fill="#64748B" font-size="11">Total Stock Value</text>
  <text x="934" y="182" fill="#0F172A" font-size="22" font-weight="800">UGX 38.2M</text>
  <rect x="934" y="194" width="80" height="12" rx="6" fill="#F0FDF4"/>
  <text x="974" y="203" text-anchor="middle" fill="#16A34A" font-size="9" font-weight="600">↑ 4.3% MoM</text>

  <!-- ── RECENT GRN ACTIVITY TABLE ── -->
  <text x="224" y="236" fill="#0F172A" font-size="14" font-weight="700">Recent GRN Activity</text>
  <text x="1118" y="236" fill="#14B8A6" font-size="11" font-weight="600">View all →</text>
  <!-- Header row -->
  <rect x="220" y="244" width="960" height="28" fill="#F1F5F9"/>
  <line x1="220" y1="272" x2="1180" y2="272" stroke="#E2E8F0"/>
  <text x="236" y="262" fill="#64748B" font-size="10" font-weight="700">GRN #</text>
  <text x="380" y="262" fill="#64748B" font-size="10" font-weight="700">SUPPLIER</text>
  <text x="628" y="262" fill="#64748B" font-size="10" font-weight="700">DATE</text>
  <text x="740" y="262" fill="#64748B" font-size="10" font-weight="700">ITEMS</text>
  <text x="830" y="262" fill="#64748B" font-size="10" font-weight="700">VALUE (UGX)</text>
  <text x="996" y="262" fill="#64748B" font-size="10" font-weight="700">STATUS</text>
  <!-- Row 1 – Verified -->
  <rect x="220" y="272" width="960" height="38" fill="white"/>
  <line x1="220" y1="310" x2="1180" y2="310" stroke="#E2E8F0"/>
  <text x="236" y="295" fill="#0F172A" font-size="11">GRN-2026-0147</text>
  <text x="380" y="295" fill="#0F172A" font-size="11">Mukwano Industries Ltd</text>
  <text x="628" y="295" fill="#64748B" font-size="11">05 Mar 2026</text>
  <text x="740" y="295" fill="#0F172A" font-size="11">24</text>
  <text x="830" y="295" fill="#0F172A" font-size="11">4,820,000</text>
  <rect x="984" y="283" width="72" height="20" rx="10" fill="#F0FDF4" stroke="#BBF7D0"/>
  <text x="1020" y="297" text-anchor="middle" fill="#16A34A" font-size="10" font-weight="600">Verified</text>
  <!-- Row 2 – Pending -->
  <rect x="220" y="310" width="960" height="38" fill="#F8FAFC"/>
  <line x1="220" y1="348" x2="1180" y2="348" stroke="#E2E8F0"/>
  <text x="236" y="333" fill="#0F172A" font-size="11">GRN-2026-0146</text>
  <text x="380" y="333" fill="#0F172A" font-size="11">Crown Beverages Uganda</text>
  <text x="628" y="333" fill="#64748B" font-size="11">04 Mar 2026</text>
  <text x="740" y="333" fill="#0F172A" font-size="11">8</text>
  <text x="830" y="333" fill="#0F172A" font-size="11">1,260,000</text>
  <rect x="974" y="321" width="90" height="20" rx="10" fill="#FFFBEB" stroke="#FDE68A"/>
  <text x="1019" y="335" text-anchor="middle" fill="#B45309" font-size="10" font-weight="600">Pending Review</text>
  <!-- Row 3 – Variance Flagged -->
  <rect x="220" y="348" width="960" height="38" fill="white"/>
  <line x1="220" y1="386" x2="1180" y2="386" stroke="#E2E8F0"/>
  <text x="236" y="371" fill="#0F172A" font-size="11">GRN-2026-0145</text>
  <text x="380" y="371" fill="#0F172A" font-size="11">City Oils Ltd</text>
  <text x="628" y="371" fill="#64748B" font-size="11">03 Mar 2026</text>
  <text x="740" y="371" fill="#0F172A" font-size="11">15</text>
  <text x="830" y="371" fill="#0F172A" font-size="11">2,150,000</text>
  <rect x="966" y="359" width="108" height="20" rx="10" fill="#FEF2F2" stroke="#FECACA"/>
  <text x="1020" y="373" text-anchor="middle" fill="#B91C1C" font-size="10" font-weight="600">Variance Flagged</text>
  <!-- Row 4 – Verified -->
  <rect x="220" y="386" width="960" height="38" fill="#F8FAFC"/>
  <line x1="220" y1="424" x2="1180" y2="424" stroke="#E2E8F0"/>
  <text x="236" y="409" fill="#0F172A" font-size="11">GRN-2026-0144</text>
  <text x="380" y="409" fill="#0F172A" font-size="11">Nile Breweries Ltd</text>
  <text x="628" y="409" fill="#64748B" font-size="11">02 Mar 2026</text>
  <text x="740" y="409" fill="#0F172A" font-size="11">36</text>
  <text x="830" y="409" fill="#0F172A" font-size="11">8,640,000</text>
  <rect x="984" y="397" width="72" height="20" rx="10" fill="#F0FDF4" stroke="#BBF7D0"/>
  <text x="1020" y="411" text-anchor="middle" fill="#16A34A" font-size="10" font-weight="600">Verified</text>
  <!-- Row 5 – Verified -->
  <rect x="220" y="424" width="960" height="38" fill="white"/>
  <line x1="220" y1="462" x2="1180" y2="462" stroke="#E2E8F0"/>
  <text x="236" y="447" fill="#0F172A" font-size="11">GRN-2026-0143</text>
  <text x="380" y="447" fill="#0F172A" font-size="11">Fresh Produce Uganda</text>
  <text x="628" y="447" fill="#64748B" font-size="11">01 Mar 2026</text>
  <text x="740" y="447" fill="#0F172A" font-size="11">42</text>
  <text x="830" y="447" fill="#0F172A" font-size="11">3,920,000</text>
  <rect x="984" y="435" width="72" height="20" rx="10" fill="#F0FDF4" stroke="#BBF7D0"/>
  <text x="1020" y="449" text-anchor="middle" fill="#16A34A" font-size="10" font-weight="600">Verified</text>
  <!-- Row 6 – Verified -->
  <rect x="220" y="462" width="960" height="38" fill="#F8FAFC"/>
  <line x1="220" y1="500" x2="1180" y2="500" stroke="#E2E8F0"/>
  <text x="236" y="485" fill="#0F172A" font-size="11">GRN-2026-0142</text>
  <text x="380" y="485" fill="#0F172A" font-size="11">Coca-Cola Uganda Ltd</text>
  <text x="628" y="485" fill="#64748B" font-size="11">28 Feb 2026</text>
  <text x="740" y="485" fill="#0F172A" font-size="11">60</text>
  <text x="830" y="485" fill="#0F172A" font-size="11">6,480,000</text>
  <rect x="984" y="473" width="72" height="20" rx="10" fill="#F0FDF4" stroke="#BBF7D0"/>
  <text x="1020" y="487" text-anchor="middle" fill="#16A34A" font-size="10" font-weight="600">Verified</text>
  <!-- Table footer / pagination -->
  <rect x="220" y="500" width="960" height="34" fill="#F8FAFC"/>
  <line x1="220" y1="500" x2="1180" y2="500" stroke="#E2E8F0"/>
  <text x="236" y="521" fill="#94A3B8" font-size="10">Showing 6 of 147 entries</text>
  <rect x="1074" y="510" width="22" height="16" rx="5" fill="#E2E8F0"/>
  <text x="1085" y="522" text-anchor="middle" fill="#64748B" font-size="10" font-weight="600">‹</text>
  <rect x="1102" y="510" width="22" height="16" rx="5" fill="#14B8A6"/>
  <text x="1113" y="522" text-anchor="middle" fill="white" font-size="10" font-weight="600">1</text>
  <rect x="1130" y="510" width="22" height="16" rx="5" fill="#E2E8F0"/>
  <text x="1141" y="522" text-anchor="middle" fill="#64748B" font-size="10" font-weight="600">2</text>
  <rect x="1158" y="510" width="22" height="16" rx="5" fill="#E2E8F0"/>
  <text x="1169" y="522" text-anchor="middle" fill="#64748B" font-size="10" font-weight="600">›</text>
</svg>
